<svg aria-hidden="true" style="position: absolute; width: 0; height: 0; overflow: hidden;" version="1.1" xmlns="http://www.w3.org/2000/svg" xmlns:xlink="http://www.w3.org/1999/xlink">
<defs>
<symbol id="icon-polygon" viewBox="0 0 52 32">
<path  d="M26 32l-25.981-30h51.962l-25.981 30z"></path>
</symbol>
<symbol id="icon-search" viewBox="0 0 32 32">
<path  d="M4.024 4.024c2.595-2.595 6.045-4.024 9.715-4.024s7.12 1.429 9.715 4.024c2.595 2.595 4.024 6.045 4.024 9.715 0 3.355-1.195 6.526-3.383 9.029l7.63 7.63c0.366 0.366 0.366 0.961 0 1.327-0.183 0.183-0.423 0.275-0.664 0.275s-0.48-0.092-0.663-0.275l-7.63-7.63c-2.502 2.188-5.673 3.383-9.029 3.383-3.67 0-7.12-1.429-9.715-4.024s-4.024-6.045-4.024-9.715 1.429-7.12 4.024-9.715zM5.351 22.127c4.625 4.625 12.15 4.625 16.775 0s4.625-12.15 0-16.775c-2.313-2.313-5.35-3.469-8.388-3.469s-6.075 1.157-8.388 3.469c-4.625 4.625-4.625 12.15 0 16.775z"></path>
</symbol>
<symbol id="logo" viewBox="0 0 38 32">
<path fill="#000" style="fill: var(--color2, #000)" opacity="0.03" d="M0.080 32c4.986 0 9.924-0.828 14.531-2.436s8.793-3.965 12.318-6.937c3.526-2.971 6.323-6.499 8.231-10.381s2.89-8.044 2.89-12.246h-37.97v32z"></path>
<path fill="#fff" style="fill: var(--color3, #fff)" d="M13.122 14.533c-0.203-0.565-0.621-0.847-1.255-0.848h-0.2v3.484h0.2c0.489 0 0.851-0.193 1.084-0.579 0.196-0.329 0.294-0.748 0.294-1.257-0-0.303-0.042-0.57-0.124-0.801z"></path>
<path fill="#fff" style="fill: var(--color3, #fff)" d="M9.693 14.574c0.203 0.565 0.622 0.847 1.254 0.847h0.2v-3.484h-0.2c-0.489 0-0.851 0.193-1.084 0.579-0.196 0.329-0.294 0.748-0.294 1.257 0 0.302 0.041 0.569 0.123 0.801z"></path>
<path fill="#fff" style="fill: var(--color3, #fff)" d="M6.368 6.373h2.658v0.923h-1.704v0.461h1.416v0.876h-1.416v0.467h1.704v0.923h-2.658v-3.649z"></path>
<path fill="#fff" style="fill: var(--color3, #fff)" d="M10.363 6.368h3.44l-1.72 3.728-1.72-3.728zM12.083 9.635l1.421-3.073h-2.837l1.416 3.073z"></path>
<path fill="#fff" style="fill: var(--color3, #fff)" d="M15.177 6.373h2.658v0.923h-1.704v0.461h1.416v0.876h-1.416v0.467h1.704v0.923h-2.658v-3.649z"></path>
<path fill="#fff" style="fill: var(--color3, #fff)" d="M19.471 10.017v-3.648h0.205l2.548 2.48v-2.48h0.194v3.649l-2.947-0.001z"></path>
<path fill="#fff" style="fill: var(--color3, #fff)" d="M25.202 10.022v-2.727h-1.379v-0.923h2.947v0.923h-1.379v2.727h-0.189z"></path>
<path fill="#fff" style="fill: var(--color3, #fff)" d="M7.936 12.665c0.231 0 0.414 0.035 0.551 0.105 0.157 0.076 0.288 0.196 0.379 0.345s0.138 0.32 0.135 0.494c0.001 0.168-0.046 0.333-0.136 0.475-0.091 0.145-0.22 0.264-0.372 0.343 0.189 0.067 0.355 0.187 0.477 0.346 0.127 0.157 0.195 0.354 0.194 0.556 0.001 0.177-0.047 0.35-0.139 0.501-0.090 0.15-0.217 0.273-0.37 0.359-0.081 0.043-0.167 0.075-0.257 0.094-0.094 0.021-0.22 0.031-0.377 0.031h-1.615v-3.649h1.531z"></path>
<path fill="#fff" style="fill: var(--color3, #fff)" d="M14.084 16.049c-0.274-0.239-0.41-0.599-0.406-1.078h0.855c-0.004 0.199 0.056 0.351 0.178 0.456s0.294 0.157 0.514 0.157c0.182 0 0.325-0.030 0.43-0.089s0.157-0.15 0.157-0.273c0-0.101-0.053-0.175-0.16-0.22-0.102-0.044-0.208-0.076-0.317-0.097-0.105-0.019-0.17-0.031-0.194-0.035-0.238-0.044-0.471-0.108-0.697-0.192-0.19-0.071-0.36-0.188-0.493-0.341s-0.199-0.357-0.199-0.608 0.066-0.466 0.199-0.642c0.133-0.177 0.31-0.309 0.532-0.396 0.232-0.089 0.478-0.134 0.726-0.131 0.318 0 0.593 0.059 0.826 0.178s0.415 0.299 0.548 0.54c0.062 0.102 0.103 0.215 0.121 0.333 0.014 0.103 0.021 0.208 0.021 0.312h-0.855c0-0.189-0.051-0.328-0.152-0.417s-0.259-0.134-0.472-0.134c-0.171 0-0.304 0.030-0.399 0.089s-0.142 0.14-0.142 0.241c0 0.112 0.063 0.194 0.189 0.246 0.155 0.061 0.314 0.108 0.477 0.142 0.315 0.063 0.56 0.123 0.737 0.181 0.178 0.059 0.337 0.165 0.459 0.307 0.129 0.147 0.194 0.353 0.194 0.619 0 0.252-0.070 0.468-0.21 0.65s-0.324 0.321-0.553 0.417c-0.235 0.097-0.487 0.146-0.742 0.144-0.507-0.001-0.897-0.121-1.172-0.36z"></path>
<path fill="#fff" style="fill: var(--color3, #fff)" d="M18.91 16.314v-2.726h-1.379v-0.923h2.947v0.923h-1.379v2.726h-0.189z"></path>
<path fill="#fff" style="fill: var(--color3, #fff)" d="M21.469 12.665h2.658v0.923h-1.704v0.461h1.416v0.876h-1.416v0.467h1.704v0.923h-2.658v-3.649z"></path>
<path fill="#fff" style="fill: var(--color3, #fff)" d="M28.065 16.314h-2.805v-3.649h1.421c0.304 0 0.552 0.054 0.745 0.163 0.184 0.1 0.336 0.249 0.44 0.43 0.105 0.183 0.16 0.392 0.157 0.603 0.003 0.265-0.086 0.524-0.252 0.731-0.158 0.209-0.381 0.359-0.634 0.427l0.928 1.295zM25.453 12.984v1.882h1.348l-1.348-1.882zM25.453 16.12h2.244l-0.765-1.064-0.163 0.005h-1.316v1.059zM25.59 12.858l1.426 1.992c0.229-0.046 0.435-0.17 0.582-0.351 0.151-0.178 0.233-0.406 0.231-0.64 0.002-0.184-0.047-0.366-0.142-0.524-0.094-0.157-0.233-0.283-0.398-0.362-0.154-0.077-0.355-0.115-0.603-0.115h-1.096z"></path>
</symbol>
<symbol id="icon-github" viewBox="0 0 32 32">
<path d="M16 0.395c-8.836 0-16 7.163-16 16 0 7.069 4.585 13.067 10.942 15.182 0.8 0.148 1.094-0.347 1.094-0.77 0-0.381-0.015-1.642-0.022-2.979-4.452 0.968-5.391-1.888-5.391-1.888-0.728-1.849-1.776-2.341-1.776-2.341-1.452-0.993 0.11-0.973 0.11-0.973 1.606 0.113 2.452 1.649 2.452 1.649 1.427 2.446 3.743 1.739 4.656 1.33 0.143-1.034 0.558-1.74 1.016-2.14-3.554-0.404-7.29-1.777-7.29-7.907 0-1.747 0.625-3.174 1.649-4.295-0.166-0.403-0.714-2.030 0.155-4.234 0 0 1.344-0.43 4.401 1.64 1.276-0.355 2.645-0.532 4.005-0.539 1.359 0.006 2.729 0.184 4.008 0.539 3.054-2.070 4.395-1.64 4.395-1.64 0.871 2.204 0.323 3.831 0.157 4.234 1.026 1.12 1.647 2.548 1.647 4.295 0 6.145-3.743 7.498-7.306 7.895 0.574 0.497 1.085 1.47 1.085 2.963 0 2.141-0.019 3.864-0.019 4.391 0 0.426 0.288 0.925 1.099 0.768 6.354-2.118 10.933-8.113 10.933-15.18 0-8.837-7.164-16-16-16z"></path>
</symbol>
<symbol id="icon-linkedin" viewBox="0 0 32 32">
<path d="M31.992 32v-0.001h0.008v-11.736c0-5.741-1.236-10.164-7.948-10.164-3.227 0-5.392 1.771-6.276 3.449h-0.093v-2.913h-6.364v21.364h6.627v-10.579c0-2.785 0.528-5.479 3.977-5.479 3.399 0 3.449 3.179 3.449 5.657v10.401h6.62z"></path>
<path d="M0.528 10.636h6.635v21.364h-6.635v-21.364z"></path>
<path d="M3.843 0c-2.121 0-3.843 1.721-3.843 3.843s1.721 3.879 3.843 3.879c2.121 0 3.843-1.757 3.843-3.879-0.001-2.121-1.723-3.843-3.843-3.843v0z"></path>
</symbol>
<symbol id="icon-twitter" viewBox="0 0 32 32">
<path d="M32 6.078c-1.19 0.522-2.458 0.868-3.78 1.036 1.36-0.812 2.398-2.088 2.886-3.626-1.268 0.756-2.668 1.29-4.16 1.588-1.204-1.282-2.92-2.076-4.792-2.076-3.632 0-6.556 2.948-6.556 6.562 0 0.52 0.044 1.020 0.152 1.496-5.454-0.266-10.28-2.88-13.522-6.862-0.566 0.982-0.898 2.106-0.898 3.316 0 2.272 1.17 4.286 2.914 5.452-1.054-0.020-2.088-0.326-2.964-0.808 0 0.020 0 0.046 0 0.072 0 3.188 2.274 5.836 5.256 6.446-0.534 0.146-1.116 0.216-1.72 0.216-0.42 0-0.844-0.024-1.242-0.112 0.85 2.598 3.262 4.508 6.13 4.57-2.232 1.746-5.066 2.798-8.134 2.798-0.538 0-1.054-0.024-1.57-0.090 2.906 1.874 6.35 2.944 10.064 2.944 12.072 0 18.672-10 18.672-18.668 0-0.29-0.010-0.57-0.024-0.848 1.302-0.924 2.396-2.078 3.288-3.406z"></path>
</symbol>
</defs>
</svg>
